<svg width="125" height="75" viewBox="0 0 125 75" fill="none" xmlns="http://www.w3.org/2000/svg">
<path d="M29.2698 19.5608H52.6666V21.4247H31.415V35.451H51.399V37.3148H31.415V52.7144H52.9102V54.5784H29.2698V19.5608ZM54.7623 19.5608H57.2486L68.2644 34.9604L79.524 19.5608L94.8389 0L69.678 36.5791L82.6436 54.5784H80.06L68.2644 38.1976L56.4203 54.5784H53.8854L66.9483 36.5791L54.7623 19.5608ZM83.5701 21.4247V19.5608H110.232V21.4247H97.9493V54.5775H95.8039V21.4247H83.5701ZM0 19.5608H2.68112L39.6483 75L24.3712 54.5784L2.24183 22.2091L2.14439 54.5784H0V19.5608ZM110.017 52.1518C109.577 52.1518 109.249 51.8116 109.249 51.3722C109.249 50.9321 109.577 50.5919 110.016 50.5919C110.459 50.5919 110.783 50.9321 110.783 51.3722C110.783 51.8116 110.46 52.1518 110.017 52.1518ZM112.123 50.0998H113.272C113.288 50.723 113.742 51.1413 114.409 51.1413C115.155 51.1413 115.577 50.6919 115.577 49.8486V44.5098H116.746V49.8537C116.746 51.3722 115.87 52.2467 114.419 52.2467C113.058 52.2467 112.123 51.3983 112.123 50.0998ZM118.274 50.0325H119.432C119.531 50.7489 120.23 51.2042 121.237 51.2042C122.175 51.2042 122.864 50.717 122.864 50.0476C122.864 49.4723 122.426 49.1263 121.429 48.891L120.459 48.6559C119.098 48.3367 118.477 47.6765 118.477 46.5668C118.477 45.2212 119.572 44.326 121.215 44.326C122.744 44.326 123.861 45.2212 123.928 46.4929H122.791C122.682 45.7974 122.077 45.3624 121.2 45.3624C120.276 45.3624 119.661 45.8076 119.661 46.488C119.661 47.0272 120.058 47.3364 121.039 47.5664L121.868 47.7705C123.411 48.1316 124.048 48.76 124.048 49.8957C124.048 51.3403 122.931 52.2467 121.148 52.2467C119.479 52.2467 118.357 51.383 118.274 50.0325Z" fill="white"/>
</svg>
