<svg width="201" height="56" viewBox="0 0 201 56" fill="none" xmlns="http://www.w3.org/2000/svg">
<path fill-rule="evenodd" clip-rule="evenodd" d="M49.0993 17.245C57.0059 19.6651 62.1629 23.5677 62.1629 27.6857C62.1629 31.791 57.0313 35.6936 49.1754 38.1138C51.0126 46.147 50.2144 52.5458 46.6539 54.5985C45.8176 55.08 44.8546 55.308 43.7903 55.308C40.3058 55.308 35.7443 52.8499 31.1321 48.5672C26.52 52.8752 21.9585 55.3587 18.474 55.3587C17.4097 55.3587 16.4467 55.1306 15.6231 54.6491C12.0499 52.5965 11.239 46.1851 13.0636 38.1264C5.15701 35.7063 0 31.8037 0 27.6857C0 23.5804 5.13167 19.6904 13.0129 17.2576C11.1756 9.22434 11.9739 2.82559 15.5344 0.772919C16.3707 0.291428 17.3336 0.063354 18.398 0.063354V0.0506832C21.8825 0.0506832 26.444 2.50882 31.0561 6.79155C35.6683 2.48348 40.2298 0 43.7142 0V0.0126818C44.761 0.0145077 45.7195 0.24268 46.5398 0.722235C50.113 2.7749 50.9239 9.18633 49.0993 17.245ZM43.7016 2.8256C41.0663 2.83233 37.1948 4.93509 33.0708 8.76819C34.8574 10.6308 36.6313 12.7595 38.3418 15.1036C41.1928 15.4077 43.9043 15.8765 46.3878 16.4847C46.6665 15.205 46.8946 13.9505 47.034 12.7595C47.6169 7.91925 46.8693 4.15602 45.146 3.1677C44.7533 2.9523 44.2844 2.83826 43.7016 2.83826V2.8256ZM29.0415 8.78086C24.9108 4.96695 21.0209 2.87627 18.398 2.87627V2.88894C17.8151 2.88894 17.321 2.99031 16.9409 3.21838C15.2303 4.21938 14.4954 7.9826 15.0909 12.8228C15.243 14.0012 15.4584 15.2303 15.7498 16.4974C18.2333 15.8765 20.9448 15.4077 23.8084 15.1036C25.4936 12.7595 27.2676 10.6435 29.0415 8.78086ZM43.955 24.2392C44.6139 22.554 45.1967 20.8688 45.6656 19.2342C44.0057 18.8288 42.2698 18.4993 40.4705 18.2332C41.0914 19.1962 41.7123 20.1845 42.2951 21.1982C42.8907 22.2119 43.4355 23.2255 43.955 24.2392ZM39.8624 32.7287C38.874 34.4393 37.8604 36.0611 36.8087 37.5689C34.9207 37.7337 33.0074 37.8224 31.0815 37.8224C29.1682 37.8224 27.2549 37.7337 25.3796 37.5816C24.328 36.0738 23.3016 34.4646 22.3133 32.7667C21.3503 31.1068 20.476 29.4216 19.6778 27.7237C20.4634 26.0258 21.3503 24.328 22.3006 22.6681C23.2889 20.9575 24.3026 19.3357 25.3543 17.8278C27.2422 17.6631 29.1555 17.5744 31.0815 17.5744C32.9948 17.5744 34.9081 17.6631 36.7833 17.8152C37.835 19.323 38.8614 20.9322 39.8497 22.6301C40.8127 24.2899 41.6869 25.9752 42.4852 27.673C41.6869 29.3709 40.8127 31.0688 39.8624 32.7287ZM45.7035 36.1244C45.222 34.4772 44.6392 32.7793 43.955 31.0814C43.4355 32.0951 42.8906 33.1214 42.3078 34.1351C41.7249 35.1614 41.104 36.1624 40.4832 37.1381C42.2951 36.872 44.0437 36.5299 45.7035 36.1244ZM31.1068 44.6013C29.9285 43.3849 28.7501 42.0291 27.5844 40.5466C28.7247 40.5973 29.8904 40.6353 31.0688 40.6353C32.2599 40.6353 33.4383 40.61 34.5913 40.5466C33.4509 42.0291 32.2725 43.3849 31.1068 44.6013ZM16.4847 36.1372C18.1446 36.5426 19.8805 36.8721 21.6797 37.1382C21.0589 36.1752 20.4507 35.1869 19.8551 34.1732C19.2596 33.1595 18.7148 32.1459 18.1953 31.1322C17.5364 32.8174 16.9535 34.5026 16.4847 36.1372ZM31.0435 10.7702C32.2218 11.9866 33.4002 13.3424 34.5659 14.8248C33.4256 14.7742 32.2599 14.7361 31.0815 14.7361C29.8904 14.7361 28.712 14.7615 27.559 14.8248C28.6994 13.3424 29.8777 11.9866 31.0435 10.7702ZM19.8425 21.2362C20.4253 20.2099 21.0462 19.2089 21.6671 18.2332C19.8551 18.4993 18.1066 18.8414 16.4467 19.2342C16.9282 20.8814 17.511 22.5793 18.1953 24.2772C18.7148 23.2635 19.2596 22.2499 19.8425 21.2362ZM10.2 34.0971C5.71453 32.1838 2.81292 29.675 2.81292 27.6857C2.81292 25.6964 5.71453 23.1749 10.2 21.2743C11.2897 20.8055 12.4807 20.3873 13.7098 19.9945C14.432 22.478 15.3824 25.0629 16.5607 27.711C15.395 30.3466 14.4574 32.9187 13.7478 35.3895C12.4934 34.9968 11.3024 34.5659 10.2 34.0971ZM15.1289 42.6119C14.5461 47.4521 15.2936 51.2154 17.0169 52.2037C17.397 52.4191 17.8785 52.5331 18.4487 52.5458C21.0842 52.5458 24.9615 50.4424 29.0921 46.6032C27.3056 44.7406 25.5316 42.6119 23.8211 40.2678C20.9702 39.9637 18.2586 39.4949 15.7751 38.8867C15.4964 40.1664 15.2683 41.4208 15.1289 42.6119ZM47.072 42.5485C47.6676 47.3887 46.9326 51.152 45.2221 52.153C44.842 52.381 44.3478 52.4824 43.7649 52.4824C41.1421 52.4824 37.2522 50.3917 33.1215 46.5778C34.8954 44.7152 36.6693 42.5992 38.3545 40.2551C41.2181 39.951 43.9297 39.4822 46.4131 38.8613C46.7046 40.141 46.9326 41.3701 47.072 42.5485ZM48.4405 35.3768C49.6695 34.984 50.8606 34.5659 51.9503 34.097C56.4357 32.1964 59.3373 29.6749 59.35 27.6856C59.35 25.6963 56.4484 23.1875 51.9629 21.2742C50.8479 20.8054 49.6569 20.3746 48.4025 19.9818C47.6929 22.4526 46.7552 25.0248 45.5895 27.6603C46.7679 30.3085 47.7182 32.8933 48.4405 35.3768Z" fill="white"/>
<circle cx="31.0688" cy="27.6856" r="5.79055" fill="white"/>
<path d="M83.1629 44.7939V12.8813H95.1301C97.5817 12.8813 99.6386 13.3073 101.301 14.1591C102.973 15.0109 104.235 16.2056 105.087 17.743C105.949 19.2701 106.381 21.0517 106.381 23.0877C106.381 25.1342 105.944 26.9106 105.072 28.4169C104.209 29.9128 102.937 31.0711 101.254 31.8917C99.5711 32.702 97.5038 33.1072 95.0522 33.1072H86.5287V28.3078H94.2731C95.7067 28.3078 96.8805 28.1104 97.7947 27.7157C98.7089 27.3105 99.3841 26.7236 99.8204 25.9549C100.267 25.1758 100.49 24.2201 100.49 23.0877C100.49 21.9554 100.267 20.9893 99.8204 20.1894C99.3737 19.3792 98.6933 18.7663 97.7791 18.3507C96.865 17.9248 95.6859 17.7119 94.2419 17.7119H88.944V44.7939H83.1629ZM99.649 30.3335L107.549 44.7939H101.098L93.3382 30.3335H99.649Z" fill="white"/>
<path d="M121.706 45.2613C119.306 45.2613 117.234 44.7627 115.488 43.7654C113.754 42.7578 112.419 41.3346 111.484 39.4959C110.549 37.6468 110.081 35.4705 110.081 32.9669C110.081 30.5049 110.549 28.3442 111.484 26.4847C112.429 24.6148 113.748 23.1605 115.442 22.1216C117.135 21.0724 119.124 20.5478 121.41 20.5478C122.885 20.5478 124.277 20.7868 125.586 21.2646C126.905 21.7321 128.068 22.4593 129.076 23.4461C130.094 24.433 130.894 25.69 131.476 27.2171C132.058 28.7337 132.348 30.5413 132.348 32.6397V34.3693H112.73V30.5672H126.941C126.931 29.4869 126.697 28.526 126.24 27.6845C125.783 26.8327 125.144 26.1627 124.324 25.6744C123.513 25.1862 122.568 24.942 121.488 24.942C120.334 24.942 119.322 25.2225 118.449 25.7835C117.576 26.3341 116.896 27.0612 116.408 27.965C115.93 28.8584 115.686 29.8401 115.675 30.9101V34.2291C115.675 35.6211 115.93 36.8157 116.439 37.813C116.948 38.7999 117.66 39.5582 118.574 40.088C119.488 40.6074 120.558 40.8671 121.784 40.8671C122.604 40.8671 123.347 40.7529 124.012 40.5243C124.677 40.2854 125.253 39.9374 125.742 39.4803C126.23 39.0232 126.599 38.4571 126.848 37.7818L132.115 38.374C131.782 39.766 131.149 40.9814 130.214 42.0202C129.289 43.0487 128.105 43.8485 126.661 44.4199C125.217 44.9809 123.565 45.2613 121.706 45.2613Z" fill="white"/>
<path d="M144.008 45.2769C142.491 45.2769 141.125 45.0068 139.91 44.4666C138.705 43.9161 137.749 43.1058 137.043 42.0358C136.347 40.9658 135.999 39.6465 135.999 38.0779C135.999 36.7274 136.248 35.6107 136.747 34.7277C137.245 33.8447 137.926 33.1383 138.788 32.6085C139.65 32.0787 140.621 31.6788 141.702 31.4087C142.792 31.1282 143.92 30.9256 145.083 30.801C146.485 30.6555 147.623 30.5257 148.496 30.4114C149.368 30.2868 150.002 30.0998 150.397 29.8505C150.802 29.5908 151.004 29.1908 151.004 28.6506V28.5571C151.004 27.3833 150.656 26.4743 149.96 25.8302C149.264 25.1862 148.262 24.8641 146.953 24.8641C145.571 24.8641 144.475 25.1654 143.665 25.7679C142.865 26.3704 142.325 27.082 142.044 27.9027L136.778 27.1547C137.193 25.7004 137.879 24.485 138.835 23.5085C139.79 22.5216 140.959 21.784 142.341 21.2958C143.722 20.7972 145.249 20.5478 146.922 20.5478C148.075 20.5478 149.223 20.6829 150.365 20.953C151.508 21.2231 152.552 21.6698 153.497 22.293C154.443 22.906 155.201 23.7422 155.772 24.8018C156.354 25.8614 156.645 27.1859 156.645 28.7753V44.7939H151.222V41.506H151.035C150.693 42.1709 150.21 42.7941 149.586 43.3759C148.973 43.9472 148.199 44.4095 147.265 44.7627C146.34 45.1055 145.254 45.2769 144.008 45.2769ZM145.473 41.132C146.605 41.132 147.587 40.9087 148.418 40.462C149.249 40.0049 149.888 39.4024 150.334 38.6545C150.791 37.9065 151.02 37.091 151.02 36.208V33.3876C150.843 33.5331 150.542 33.6681 150.116 33.7928C149.701 33.9174 149.233 34.0265 148.714 34.12C148.194 34.2135 147.68 34.2966 147.171 34.3693C146.662 34.442 146.221 34.5044 145.847 34.5563C145.005 34.6706 144.252 34.8576 143.587 35.1173C142.922 35.377 142.398 35.7406 142.013 36.208C141.629 36.6651 141.437 37.2572 141.437 37.9844C141.437 39.0232 141.816 39.8075 142.574 40.3373C143.333 40.8671 144.299 41.132 145.473 41.132Z" fill="white"/>
<path d="M172.757 45.2613C170.368 45.2613 168.316 44.7367 166.602 43.6875C164.899 42.6383 163.584 41.1892 162.66 39.3401C161.746 37.4806 161.289 35.3406 161.289 32.9202C161.289 30.4893 161.756 28.3442 162.691 26.4847C163.626 24.6148 164.945 23.1605 166.649 22.1216C168.363 21.0724 170.389 20.5478 172.726 20.5478C174.669 20.5478 176.388 20.9062 177.884 21.623C179.39 22.3294 180.59 23.3319 181.483 24.6304C182.377 25.9185 182.886 27.4248 183.01 29.1493H177.619C177.401 27.9962 176.881 27.0353 176.061 26.2665C175.25 25.4874 174.165 25.0979 172.804 25.0979C171.651 25.0979 170.638 25.4095 169.765 26.0328C168.893 26.6457 168.212 27.5287 167.724 28.6818C167.246 29.8349 167.007 31.2165 167.007 32.8267C167.007 34.4576 167.246 35.86 167.724 37.0339C168.202 38.1974 168.872 39.0959 169.734 39.7296C170.607 40.3529 171.63 40.6646 172.804 40.6646C173.635 40.6646 174.378 40.5087 175.032 40.1971C175.697 39.8751 176.253 39.4128 176.699 38.8103C177.146 38.2078 177.453 37.4754 177.619 36.6132H183.01C182.875 38.3064 182.377 39.8075 181.514 41.1165C180.652 42.415 179.478 43.433 177.993 44.1706C176.507 44.8978 174.762 45.2613 172.757 45.2613Z" fill="white"/>
<path d="M199.594 20.8595V25.2225H185.835V20.8595H199.594ZM189.232 15.1252H194.872V37.5949C194.872 38.3532 194.987 38.9349 195.215 39.3401C195.454 39.7348 195.766 40.0049 196.15 40.1504C196.534 40.2958 196.96 40.3685 197.428 40.3685C197.781 40.3685 198.103 40.3425 198.394 40.2906C198.695 40.2386 198.924 40.1919 199.08 40.1504L200.03 44.5601C199.729 44.664 199.298 44.7783 198.737 44.9029C198.186 45.0276 197.511 45.1003 196.711 45.1211C195.298 45.1627 194.026 44.9497 192.893 44.4822C191.761 44.0044 190.862 43.2668 190.198 42.2695C189.543 41.2723 189.221 40.0257 189.232 38.5298V15.1252Z" fill="white"/>
</svg>
