<svg width="220" height="54" viewBox="0 0 220 54" fill="none" xmlns="http://www.w3.org/2000/svg">
<path d="M19.9506 2.35946C23.5359 0.201312 27.8094 -0.511333 31.902 0.366454C35.9945 1.24424 39.5987 3.64655 41.9816 7.0848C43.1705 8.74967 44.0147 10.635 44.4644 12.6303C44.9142 14.6255 44.9606 16.6904 44.6008 18.7038C44.2442 20.6225 43.5117 22.4519 42.4456 24.0871C44.0092 27.0716 44.5357 30.4908 43.9422 33.8069C43.5825 35.7727 42.8181 37.6423 41.6974 39.2975C40.5767 40.9526 39.1241 42.3572 37.4317 43.4221L24.8896 51.3774C21.3042 53.5356 17.0307 54.2482 12.9382 53.3704C8.84567 52.4926 5.24145 50.0903 2.85855 46.6521C1.66972 44.9929 0.825494 43.1127 0.375654 41.1223C-0.0741853 39.1319 -0.120525 37.0716 0.239366 35.063C0.584058 33.1433 1.31192 31.3125 2.37961 29.6797C0.815975 26.6952 0.28949 23.276 0.882935 19.9599C1.23739 17.9942 1.9981 16.1239 3.1165 14.4683C4.23491 12.8128 5.68645 11.4084 7.3785 10.3447L19.9506 2.35946ZM12.7516 47.1156C14.6701 47.8219 16.7587 47.9263 18.7383 47.4147C19.6395 47.1751 20.4979 46.7968 21.2826 46.2932L33.8397 38.308C34.8576 37.664 35.7304 36.8157 36.4029 35.8169C37.0753 34.8182 37.5327 33.6907 37.746 32.506C37.9706 31.3033 37.954 30.068 37.6971 28.8718C37.4402 27.6756 36.9481 26.5423 36.2493 25.5376C35.0848 23.8635 33.4347 22.5862 31.5214 21.8777C29.6081 21.1692 27.5234 21.0635 25.5481 21.5749C24.6481 21.818 23.7903 22.1962 23.0038 22.6964L18.1845 25.6871C17.9474 25.8369 17.6905 25.9527 17.4212 26.031C16.8289 26.1822 16.2045 26.1487 15.632 25.9348C15.0594 25.7209 14.566 25.337 14.2183 24.8347C14.0016 24.533 13.8476 24.191 13.7654 23.8289C13.6831 23.4668 13.6743 23.0919 13.7394 22.7263C13.8058 22.3692 13.945 22.0296 14.1484 21.7286C14.3518 21.4276 14.6151 21.1717 14.9217 20.9767L27.4639 13.0064C27.7064 12.8606 27.9684 12.7498 28.2421 12.6775C28.8299 12.5216 29.4512 12.5483 30.0233 12.754C30.5955 12.9597 31.0914 13.3346 31.445 13.8289C31.8053 14.3868 31.954 15.0551 31.8641 15.713V16.1916L32.343 16.3261C34.0861 16.8414 35.7303 17.645 37.2072 18.7038L37.8508 19.1823L38.0903 18.4645C38.2146 18.0824 38.3146 17.6928 38.3896 17.2981C38.6048 16.0896 38.5753 14.8503 38.3028 13.6534C38.0303 12.4565 37.5203 11.3263 36.8031 10.3297C35.641 8.65691 33.9936 7.3802 32.0828 6.67166C30.1721 5.96312 28.0899 5.8568 26.1169 6.36703C25.2223 6.60519 24.3694 6.97834 23.5875 7.4736L11.0154 15.4738C9.99614 16.1126 9.122 16.9576 8.44923 17.9542C7.77646 18.9509 7.31996 20.0773 7.1091 21.2608C6.88364 22.4635 6.89986 23.6989 7.15681 24.8952C7.41376 26.0916 7.9063 27.2249 8.60577 28.2292C9.76789 29.9021 11.4153 31.1788 13.326 31.8873C15.2368 32.5958 17.319 32.7022 19.292 32.1919C20.1903 31.9511 21.0478 31.5782 21.8364 31.0854L26.6407 28.0946C26.8792 27.9377 27.1422 27.8214 27.419 27.7507C28.0134 27.5962 28.641 27.6281 29.2166 27.8421C29.7923 28.0561 30.2881 28.4418 30.6368 28.947C30.8538 29.2457 31.0081 29.5851 31.0904 29.9448C31.1727 30.3046 31.1813 30.6773 31.1157 31.0405C31.0556 31.3997 30.9189 31.7419 30.7149 32.0437C30.5109 32.3456 30.2444 32.6001 29.9334 32.7901L17.4062 40.7753C17.1712 40.9288 16.9137 41.0448 16.6429 41.1192C16.0485 41.2738 15.4209 41.2419 14.8453 41.0279C14.2696 40.8139 13.7738 40.4281 13.4251 39.923C13.0373 39.3858 12.8518 38.7291 12.9012 38.0687V37.5902L12.4073 37.4556C10.6524 36.9304 9.00166 36.1058 7.52817 35.0182L6.86963 34.5396L6.64513 35.2574C6.51737 35.6385 6.41733 36.0283 6.3458 36.4238C6.12762 37.6313 6.15429 38.8702 6.42424 40.0672C6.69418 41.2642 7.2019 42.3949 7.9173 43.3922C9.09862 45.1086 10.7896 46.411 12.7516 47.1156Z" fill="white"/>
<path d="M71.9536 41.6371C69.428 41.6371 67.2418 41.0251 65.3951 39.8012C63.5484 38.5501 62.272 36.8502 61.5659 34.7015L65.5581 33.2328C66.1555 34.5655 67.0246 35.6262 68.1652 36.415C69.3058 37.1766 70.6229 37.5573 72.1166 37.5573C73.6917 37.5573 74.9409 37.1766 75.8643 36.415C76.8148 35.6534 77.2901 34.5655 77.2901 33.1512C77.2901 32.5528 77.1543 32.0089 76.8827 31.5193C76.6383 31.0025 76.3531 30.5809 76.0272 30.2546C75.7014 29.9282 75.1989 29.6018 74.52 29.2754C73.8411 28.9218 73.2708 28.6635 72.8091 28.5003C72.3746 28.3099 71.7228 28.0651 70.8538 27.7659C69.7675 27.3851 68.9527 27.0859 68.4096 26.8684C67.8664 26.6508 67.1468 26.2972 66.2506 25.8076C65.3815 25.2908 64.7162 24.7877 64.2545 24.2981C63.82 23.7813 63.4262 23.115 63.0732 22.299C62.7201 21.4831 62.5436 20.5719 62.5436 19.5656C62.5436 17.4713 63.3583 15.7034 64.9878 14.2619C66.6172 12.8204 68.8305 12.0996 71.6277 12.0996C73.9633 12.0996 75.8779 12.6164 77.3715 13.6499C78.8923 14.6835 79.9108 16.057 80.4267 17.7705L76.5161 19.076C76.1359 18.2057 75.4977 17.5121 74.6015 16.9953C73.7324 16.4514 72.6326 16.1794 71.3019 16.1794C69.944 16.1794 68.8713 16.4786 68.0837 17.0769C67.3233 17.6753 66.9431 18.5184 66.9431 19.6064C66.9431 20.3407 67.2418 20.9935 67.8393 21.5647C68.4367 22.1358 69.0614 22.5574 69.7131 22.8294C70.3649 23.1014 71.3562 23.4686 72.6869 23.9309C73.5016 24.2301 74.0991 24.4613 74.4793 24.6245C74.8866 24.7605 75.4705 25.0053 76.2309 25.3588C76.9913 25.7124 77.5752 26.0388 77.9826 26.338C78.3899 26.61 78.8652 26.9907 79.4083 27.4803C79.9515 27.9699 80.3589 28.4731 80.6304 28.9898C80.9292 29.4794 81.1736 30.0914 81.3637 30.8257C81.5809 31.5329 81.6896 32.2944 81.6896 33.1104C81.6896 35.7758 80.7798 37.8701 78.9602 39.3932C77.1407 40.8891 74.8052 41.6371 71.9536 41.6371Z" fill="white"/>
<path d="M98.1274 41.1475L88.3508 12.5892H92.9132L99.3903 32.4984C99.7976 33.7496 100.096 34.8375 100.286 35.7622C100.477 34.8375 100.775 33.7496 101.183 32.4984L107.578 12.5892H112.1L102.364 41.1475H98.1274Z" fill="white"/>
<path d="M120.711 40.9254V12.367H138.391V16.3652H124.948V24.1983H133.625V28.1965H124.948V36.9272H139.287V40.9254H120.711Z" fill="white"/>
<path d="M150.16 41.1475V12.5892H154.396V37.0678H168.328V41.1475H150.16Z" fill="white"/>
<path d="M184.64 16.6689V41.1475H180.403V16.6689H172.337V12.5892H192.705V16.6689H184.64Z" fill="white"/>
<path d="M201.424 41.1475V12.5892H219.104V16.5873H205.661V24.4205H214.338V28.4187H205.661V37.1494H220V41.1475H201.424Z" fill="white"/>
</svg>
