<svg width="180" height="66" viewBox="0 0 180 66" fill="none" xmlns="http://www.w3.org/2000/svg">
<path fill-rule="evenodd" clip-rule="evenodd" d="M83.4222 14.0061C83.4222 13.5428 83.6794 13.1567 84.1937 12.8478C84.7081 12.539 85.2459 12.3845 85.807 12.3845C86.5863 12.3845 87.0695 12.6779 87.2565 13.2648L95.4864 40.7847L103.67 13.2648C103.888 12.678 104.355 12.3845 105.072 12.3845C105.665 12.3845 106.218 12.5544 106.732 12.8941C107.247 13.2339 107.504 13.62 107.504 14.0524C107.504 14.0833 107.496 14.1296 107.481 14.1914C107.465 14.2532 107.457 14.315 107.457 14.3767L97.9648 45.1862C97.6218 46.0819 96.7958 46.5297 95.4865 46.5297C94.1772 46.5297 93.3822 46.0819 93.1017 45.1862L83.5161 14.3767C83.4538 14.1914 83.4226 14.0679 83.4226 14.0061H83.4222ZM107.872 37.7267V25.6812C107.872 25.3106 108.067 24.9863 108.457 24.7083C108.847 24.4303 109.306 24.2913 109.836 24.2913C110.335 24.2913 110.779 24.438 111.169 24.7314C111.559 25.0249 111.754 25.3415 111.754 25.6812V37.7267C111.754 39.1166 112.283 40.3675 113.343 41.4794C114.403 42.5913 115.666 43.1473 117.131 43.1473C118.565 43.1473 119.812 42.599 120.872 41.5026C121.932 40.4061 122.462 39.1474 122.462 37.7267V25.6342C122.462 25.2944 122.657 24.9855 123.046 24.7076C123.436 24.4296 123.896 24.2906 124.426 24.2906C124.987 24.2906 125.447 24.4219 125.805 24.6844C126.164 24.947 126.343 25.2635 126.343 25.6342V37.7267C126.343 40.105 125.431 42.182 123.607 43.958C121.784 45.734 119.625 46.622 117.131 46.622C114.606 46.622 112.432 45.734 110.608 43.958C108.784 42.182 107.872 40.105 107.872 37.7267H107.872ZM129.516 37.634V32.7694C129.516 30.3911 130.428 28.3372 132.252 26.6075C134.075 24.8779 136.265 24.013 138.822 24.013C141.253 24.013 143.357 24.8238 145.134 26.4454C146.911 28.0669 147.8 30.0977 147.8 32.5378C147.8 33.4335 147.691 34.1516 147.472 34.6921C147.254 35.2327 146.919 35.6187 146.467 35.8504C146.015 36.0821 145.594 36.2288 145.204 36.2905C144.815 36.3523 144.293 36.3832 143.638 36.3832H133.397V37.7731C133.397 39.4719 134.013 40.8309 135.244 41.8502C136.476 42.8694 138.073 43.379 140.037 43.379C141.066 43.379 141.962 43.2246 142.726 42.9157C143.49 42.6069 144.105 42.3057 144.573 42.0124C145.041 41.7189 145.415 41.5722 145.695 41.5722C146.132 41.5722 146.506 41.7653 146.817 42.1513C147.129 42.5374 147.285 42.9312 147.285 43.3327C147.285 44.0431 146.576 44.769 145.157 45.5102C143.739 46.2515 141.986 46.6221 139.897 46.6221C136.842 46.6221 134.348 45.7959 132.415 44.1435C130.482 42.491 129.516 40.3213 129.516 37.6341L129.516 37.634ZM133.397 33.7887H142.048C142.859 33.7887 143.404 33.6883 143.685 33.4875C143.965 33.2868 144.106 32.893 144.106 32.3062C144.106 30.9163 143.591 29.6962 142.562 28.6461C141.534 27.5959 140.271 27.0708 138.775 27.0708C137.31 27.0708 136.047 27.5573 134.987 28.5302C133.927 29.5031 133.397 30.7 133.397 32.1207L133.397 33.7887ZM149.758 44.1201C149.758 43.4406 149.992 42.8615 150.459 42.3827C150.927 41.904 151.504 41.6646 152.189 41.6646C152.844 41.6646 153.405 41.904 153.873 42.3827C154.34 42.8615 154.574 43.4406 154.574 44.1201C154.574 44.7687 154.34 45.3324 153.873 45.8111C153.405 46.2899 152.844 46.5292 152.189 46.5292C151.504 46.5292 150.927 46.2899 150.459 45.8111C149.992 45.3324 149.758 44.7688 149.758 44.1201ZM153.212 55.193C153.212 54.6989 153.368 54.2897 153.68 53.9653C153.992 53.641 154.366 53.4789 154.802 53.4789C156.018 53.4789 156.813 53.031 157.187 52.1353C157.561 51.2396 157.748 49.8961 157.748 48.1046V25.6345C157.748 25.233 157.927 24.9087 158.286 24.6616C158.644 24.4145 159.104 24.291 159.665 24.291C160.226 24.291 160.694 24.4145 161.068 24.6616C161.442 24.9087 161.629 25.233 161.629 25.6345V48.1046C161.629 50.7918 161.099 52.9229 160.039 54.4981C158.979 56.0734 157.374 56.861 155.223 56.861C153.883 56.861 153.212 56.305 153.212 55.1931L153.212 55.193ZM157.234 16.0442C157.234 15.4574 157.468 14.9478 157.935 14.5153C158.403 14.0829 158.979 13.8667 159.665 13.8667C160.32 13.8667 160.881 14.0829 161.349 14.5153C161.816 14.9477 162.05 15.4574 162.05 16.0442C162.05 16.631 161.816 17.1484 161.349 17.5963C160.881 18.0441 160.32 18.2681 159.665 18.2681C159.011 18.2681 158.442 18.0441 157.958 17.5963C157.475 17.1484 157.234 16.631 157.234 16.0442H157.234ZM164.523 43.1005C164.523 42.699 164.655 42.3052 164.92 41.9192C165.185 41.5331 165.504 41.34 165.879 41.34C166.128 41.34 166.486 41.5254 166.954 41.896C167.422 42.2666 168.092 42.6296 168.965 42.9847C169.838 43.3399 170.866 43.5175 172.051 43.5175C173.61 43.5175 174.74 43.2396 175.441 42.6836C176.142 42.1276 176.493 41.4327 176.493 40.5988C176.493 39.5795 176.103 38.7687 175.324 38.1664C174.545 37.5641 173.594 37.1085 172.472 36.7997C171.349 36.4908 170.227 36.1511 169.105 35.7804C167.983 35.4098 167.032 34.792 166.252 33.9272C165.473 33.0624 165.083 31.9196 165.083 30.4988C165.083 28.7383 165.715 27.2171 166.977 25.9353C168.24 24.6535 170.165 24.0127 172.752 24.0127C174.404 24.0127 175.916 24.2675 177.288 24.7771C178.66 25.2867 179.345 25.8658 179.345 26.5144C179.345 26.8851 179.197 27.302 178.901 27.7653C178.605 28.2286 178.239 28.4603 177.802 28.4603C177.677 28.4603 177.077 28.2364 176.002 27.7885C174.926 27.3406 173.859 27.1167 172.799 27.1167C171.365 27.1167 170.297 27.4487 169.596 28.1128C168.894 28.7769 168.544 29.5259 168.544 30.3598C168.544 31.2246 168.933 31.9042 169.713 32.3983C170.492 32.8925 171.451 33.2786 172.588 33.5566C173.726 33.8346 174.856 34.1743 175.979 34.5759C177.101 34.9774 178.052 35.6646 178.831 36.6375C179.61 37.6105 180 38.8691 180 40.4134C180 42.3284 179.314 43.8418 177.943 44.9537C176.571 46.0656 174.654 46.6216 172.191 46.6216C170.071 46.6216 168.263 46.2432 166.767 45.4865C165.271 44.7298 164.522 43.9344 164.522 43.1005L164.523 43.1005Z" fill="white"/>
<path d="M60.8469 0H47.8571L38.2857 15.0408L30.0816 0H0L38.2857 65.4617L76.5714 0H60.8469ZM9.4005 5.46938H18.6301L38.2857 39.3112L57.7704 5.46938H66.9999L38.2857 54.6938L9.4005 5.46938Z" fill="white"/>
</svg>
